<svg version="1.1" id="Layer_1" xmlns="http://www.w3.org/2000/svg" xmlns:xlink="http://www.w3.org/1999/xlink" x="0px" y="0px"
	 width="100%" viewBox="0 0 330 137" enable-background="new 0 0 330 137" xml:space="preserve">
<path fill="#000000" opacity="1.000000" stroke="none" 
	d="
M256.000000,138.000000 
	C170.666687,138.000000 85.833374,138.000000 1.000046,138.000000 
	C1.000030,92.333366 1.000030,46.666729 1.000015,1.000070 
	C110.999939,1.000047 220.999878,1.000047 330.999878,1.000023 
	C330.999908,46.666599 330.999908,92.333199 330.999939,137.999908 
	C306.166656,138.000000 281.333344,138.000000 256.000000,138.000000 
M129.500000,11.999751 
	C91.764328,11.999751 54.028656,11.999751 16.250299,11.999751 
	C16.250299,50.312325 16.250299,87.892281 16.250299,125.722610 
	C116.175774,125.722610 215.850647,125.722610 315.661407,125.722610 
	C315.661407,87.746407 315.661407,50.048660 315.661407,11.999751 
	C253.715530,11.999751 192.107773,11.999751 129.500000,11.999751 
z"/>
<path fill="#D32251" opacity="1.000000" stroke="none" 
	d="
M130.000000,11.999751 
	C192.107773,11.999751 253.715530,11.999751 315.661407,11.999751 
	C315.661407,50.048660 315.661407,87.746407 315.661407,125.722610 
	C215.850647,125.722610 116.175774,125.722610 16.250299,125.722610 
	C16.250299,87.892281 16.250299,50.312325 16.250299,11.999751 
	C54.028656,11.999751 91.764328,11.999751 130.000000,11.999751 
M186.429886,25.440224 
	C177.785873,25.617392 169.141846,25.794559 160.201218,26.267300 
	C160.039627,26.532179 160.032318,26.801279 160.031937,27.992178 
	C160.021652,54.547028 159.992615,81.101929 160.053131,107.656609 
	C160.056366,109.075287 160.814148,110.492233 162.111649,112.006081 
	C166.022522,111.947540 169.933411,111.888992 174.693222,111.604080 
	C174.867981,100.056274 175.042740,88.508469 176.119781,76.965897 
	C178.761169,76.966141 181.416687,77.141747 184.040985,76.930153 
	C189.518066,76.488525 192.977982,78.912994 194.972656,84.895645 
	C194.982300,92.446045 194.936005,99.997307 195.050873,107.546104 
	C195.072662,108.979279 195.732834,110.402756 196.998520,111.965790 
	C201.036743,111.684822 205.074982,111.403854 209.795090,110.584099 
	C209.806870,100.986496 209.818665,91.388901 209.624313,81.130875 
	C207.525833,77.598801 205.258896,74.150070 203.442566,70.478416 
	C202.964203,69.511375 203.652573,67.753578 204.199234,66.535797 
	C205.489243,63.662067 207.677292,61.035976 208.313889,58.055901 
	C209.764343,51.265713 210.317810,43.963833 206.260880,38.075626 
	C202.500565,32.617962 197.273102,28.090700 189.787186,26.379156 
	C188.907684,26.220419 188.028183,26.061684 186.429886,25.440224 
M273.340698,26.358341 
	C273.245209,46.694965 273.139954,67.031570 273.093353,87.368309 
	C273.091644,88.107941 273.665466,88.848900 274.016754,90.356163 
	C273.831848,100.410706 284.511292,110.650246 294.183960,111.956955 
	C301.508057,112.946381 301.944794,112.393890 301.944580,104.826477 
	C301.944550,102.703392 301.944550,100.580307 301.944550,97.914627 
	C294.829071,99.154305 290.718384,95.641594 288.069000,89.148483 
	C288.069000,68.256889 288.069000,47.365295 288.069000,26.163513 
	C283.082794,26.163513 278.647339,26.163513 273.340698,26.358341 
M257.841644,26.147549 
	C252.267670,26.426544 246.693680,26.705540 240.391739,27.133835 
	C231.477509,30.064245 225.610168,36.139465 223.480530,45.149471 
	C221.365051,54.099506 223.761765,62.300663 230.041031,68.986282 
	C215.544968,85.587540 225.111481,107.498329 241.675354,111.550659 
	C246.004303,111.992706 250.326767,112.569427 254.666946,112.778854 
	C255.707153,112.829041 256.806335,111.657494 257.976349,110.115700 
	C257.976349,106.176331 257.976349,102.236961 257.976349,99.049614 
	C252.414642,97.959839 247.460663,97.303467 242.703049,95.954521 
	C239.089783,94.930038 236.286026,88.928848 237.018097,85.165108 
	C237.972351,80.259102 241.370316,77.187599 246.057297,76.994377 
	C258.238739,76.492210 258.238159,76.492226 257.985901,64.331863 
	C257.973083,63.714031 257.984253,63.095707 257.984253,62.026760 
	C254.319778,62.026760 251.026718,62.068958 247.735123,62.017395 
	C242.043304,61.928234 237.196075,57.124561 236.971268,51.414806 
	C236.759476,46.035511 241.175919,41.329834 246.940704,41.042839 
	C250.532730,40.864017 254.140900,41.009613 257.878387,41.009613 
	C257.878387,35.896801 257.878387,31.424524 257.841644,26.147549 
M79.565109,83.119232 
	C77.708435,79.248482 75.701637,75.439278 74.076263,71.473724 
	C73.504829,70.079536 73.348396,68.088753 73.901711,66.739029 
	C75.649445,62.475697 77.822884,58.386890 79.969193,53.266342 
	C79.979271,48.819576 80.109032,44.368942 79.965332,39.927151 
	C79.825317,35.598942 79.405556,31.279783 78.619263,26.240774 
	C74.358467,26.492847 70.097679,26.744919 65.160538,27.511757 
	C65.029709,36.359528 64.898880,45.207302 64.207626,54.430119 
	C62.938320,56.235661 61.961468,58.377914 60.344074,59.782684 
	C55.763493,63.761097 50.138725,61.560020 44.866089,60.981274 
	C44.909954,50.754665 44.992615,40.527863 44.941448,30.301729 
	C44.935951,29.203514 44.151871,28.109194 43.056610,26.575283 
	C38.723312,26.538946 34.390015,26.502609 29.351608,27.070404 
	C29.237892,27.720270 29.025202,28.370062 29.024723,29.020012 
	C29.005377,55.317101 28.991207,81.614235 29.047266,107.911209 
	C29.049843,109.119423 29.705324,110.326256 30.602015,112.042458 
	C35.079567,112.933441 39.623016,114.641434 44.577679,110.685692 
	C44.688656,99.493332 44.799633,88.300980 45.844719,76.990761 
	C48.499428,76.984093 51.175262,77.189209 53.804482,76.926971 
	C59.399414,76.368950 62.775753,79.016449 64.960228,84.882309 
	C64.973984,91.712532 64.911102,98.544281 65.046349,105.372101 
	C65.089111,107.531044 65.661415,109.679504 66.907249,111.978676 
	C70.911987,111.929314 74.916725,111.879944 79.743065,111.553604 
	C79.772591,102.292343 79.802109,93.031075 79.565109,83.119232 
M108.931061,109.756554 
	C108.931061,98.986458 108.931061,88.216370 108.931061,77.219276 
	C116.141823,77.219276 122.864273,77.219276 130.166229,77.219276 
	C130.166229,88.564995 130.166229,99.667732 130.187744,111.620811 
	C133.334396,112.080376 136.469269,112.660774 139.630676,112.968910 
	C143.582382,113.354073 145.116684,111.581528 145.078278,107.454353 
	C144.904938,88.828789 145.081039,70.199997 144.913330,51.574329 
	C144.889465,48.925041 143.670090,46.286514 142.651978,43.057259 
	C138.524155,30.549639 124.519623,23.885431 112.539856,26.984100 
	C103.215591,29.395903 95.347557,38.302761 94.393944,47.631451 
	C94.268127,68.401161 94.127823,89.170830 94.066902,109.940735 
	C94.064339,110.815025 94.573036,111.965126 95.235252,112.515015 
	C97.136475,114.093674 106.731499,112.657410 108.931061,109.756554 
z"/>
<path fill="#F7FBFD" opacity="1.000000" stroke="none" 
	d="
M130.166229,110.770470 
	C130.166229,99.667732 130.166229,88.564995 130.166229,77.219276 
	C122.864273,77.219276 116.141823,77.219276 108.931061,77.219276 
	C108.931061,88.216370 108.931061,98.986458 108.445908,110.351425 
	C106.306084,111.047844 104.652084,111.223495 102.996643,111.238297 
	C95.210632,111.307961 95.224792,111.292160 95.200363,103.404381 
	C95.142166,84.617577 95.069130,65.830818 95.002090,47.044041 
	C95.347557,38.302761 103.215591,29.395903 112.539856,26.984100 
	C124.519623,23.885431 138.524155,30.549639 142.835785,43.807339 
	C143.266815,62.807205 143.582489,81.056404 143.738541,99.306969 
	C143.853806,112.785713 143.761108,112.786507 130.166229,110.770470 
M129.607239,48.502121 
	C128.595520,47.007568 127.665230,45.449348 126.556221,44.030861 
	C123.676544,40.347584 119.270813,40.000591 115.770073,41.403793 
	C113.041084,42.497654 110.167183,45.802002 109.422523,48.661697 
	C108.349487,52.782452 109.148315,57.390633 109.148315,62.031517 
	C112.295639,62.031517 114.934044,62.041012 117.572365,62.029942 
	C132.168564,61.968689 130.074890,63.329166 129.607239,48.502121 
z"/>
<path fill="#FAFDFD" opacity="1.000000" stroke="none" 
	d="
M209.113220,111.122879 
	C205.074982,111.403854 201.036743,111.684822 196.546890,111.440422 
	C196.094452,103.603622 196.172638,96.290680 196.033340,88.981888 
	C196.001343,87.302650 195.222107,85.637650 194.786743,83.966095 
	C192.977982,78.912994 189.518066,76.488525 184.040985,76.930153 
	C181.416687,77.141747 178.761169,76.966141 175.347839,76.978027 
	C174.341095,78.561905 173.913818,80.132294 173.902756,81.705605 
	C173.832230,91.746857 173.853333,101.788765 173.844284,111.830452 
	C169.933411,111.888992 166.022522,111.947540 161.600662,111.497955 
	C161.114380,83.024757 161.139084,55.059677 161.618561,27.058811 
	C171.424271,27.004622 180.775208,26.986217 190.126144,26.967815 
	C197.273102,28.090700 202.500565,32.617962 206.260880,38.075626 
	C210.317810,43.963833 209.764343,51.265713 208.313889,58.055901 
	C207.677292,61.035976 205.489243,63.662067 204.199234,66.535797 
	C203.652573,67.753578 202.964203,69.511375 203.442566,70.478416 
	C205.258896,74.150070 207.525833,77.598801 209.467270,81.809570 
	C209.244553,92.033142 209.178879,101.578018 209.113220,111.122879 
M175.920227,61.957817 
	C177.751709,61.982834 179.604874,61.837044 181.410431,62.066254 
	C186.041275,62.654102 189.779160,61.091595 192.837097,57.693745 
	C195.725296,54.484486 196.077545,50.468414 194.194260,47.112801 
	C192.766144,44.568180 189.841110,41.932629 187.112259,41.268501 
	C183.073959,40.285694 178.619156,41.014385 173.450943,41.014385 
	C174.026108,48.248474 174.555328,54.904812 175.920227,61.957817 
z"/>
<path fill="#F8FBFD" opacity="1.000000" stroke="none" 
	d="
M30.056717,26.466272 
	C34.390015,26.502609 38.723312,26.538946 43.471672,27.257160 
	C43.903984,37.741001 43.878769,47.543415 43.982872,57.344456 
	C43.999046,58.867413 44.606140,60.384087 44.939976,61.903667 
	C50.138725,61.560020 55.763493,63.761097 60.344074,59.782684 
	C61.961468,58.377914 62.938320,56.235661 64.787781,53.932144 
	C65.524261,44.621780 65.680573,35.809387 65.836884,26.996992 
	C70.097679,26.744919 74.358467,26.492847 78.812820,27.066813 
	C78.983177,31.339071 78.839989,34.789631 78.964531,38.230507 
	C79.157700,43.567329 79.533348,48.897549 79.831635,54.230568 
	C77.822884,58.386890 75.649445,62.475697 73.901711,66.739029 
	C73.348396,68.088753 73.504829,70.079536 74.076263,71.473724 
	C75.701637,75.439278 77.708435,79.248482 79.411118,83.775635 
	C79.145233,93.564880 79.033348,102.697723 78.921463,111.830574 
	C74.916725,111.879944 70.911987,111.929314 66.450104,111.447769 
	C65.992409,104.462456 66.103966,98.005112 65.935570,91.555084 
	C65.869148,89.010796 65.178589,86.482819 64.772232,83.947411 
	C62.775753,79.016449 59.399414,76.368950 53.804482,76.926971 
	C51.175262,77.189209 48.499428,76.984093 45.027122,77.280594 
	C44.050903,88.708061 43.892288,99.845703 43.733669,110.983345 
	C39.623016,114.641434 35.079567,112.933441 30.398193,111.288322 
	C30.148487,82.511551 30.102602,54.488911 30.056717,26.466272 
z"/>
<path fill="#F8FCFD" opacity="1.000000" stroke="none" 
	d="
M241.119705,111.015472 
	C225.111481,107.498329 215.544968,85.587540 230.041031,68.986282 
	C223.761765,62.300663 221.365051,54.099506 223.480530,45.149471 
	C225.610168,36.139465 231.477509,30.064245 241.210831,27.113251 
	C247.312744,27.045858 252.595566,26.999052 257.878387,26.952246 
	C257.878387,31.424524 257.878387,35.896801 257.878387,41.009613 
	C254.140900,41.009613 250.532730,40.864017 246.940704,41.042839 
	C241.175919,41.329834 236.759476,46.035511 236.971268,51.414806 
	C237.196075,57.124561 242.043304,61.928234 247.735123,62.017395 
	C251.026718,62.068958 254.319778,62.026760 257.984253,62.026760 
	C257.984253,63.095707 257.973083,63.714031 257.985901,64.331863 
	C258.238159,76.492226 258.238739,76.492210 246.057297,76.994377 
	C241.370316,77.187599 237.972351,80.259102 237.018097,85.165108 
	C236.286026,88.928848 239.089783,94.930038 242.703049,95.954521 
	C247.460663,97.303467 252.414642,97.959839 257.976349,99.049614 
	C257.976349,102.236961 257.976349,106.176331 257.470520,110.638710 
	C251.683044,111.112968 246.401382,111.064224 241.119705,111.015472 
z"/>
<path fill="#F9FCFD" opacity="1.000000" stroke="none" 
	d="
M287.864105,90.081726 
	C290.718384,95.641594 294.829071,99.154305 301.944550,97.914627 
	C301.944550,100.580307 301.944550,102.703392 301.944580,104.826477 
	C301.944794,112.393890 301.508057,112.946381 294.183960,111.956955 
	C284.511292,110.650246 273.831848,100.410706 274.056885,89.466454 
	C274.171234,68.097000 274.245392,47.617256 274.763123,27.113239 
	C276.535187,27.062084 277.863678,27.017082 279.192322,27.011299 
	C287.019714,26.977234 287.025299,26.980309 287.027222,34.896297 
	C287.031097,51.177608 286.998108,67.459038 287.065338,83.740074 
	C287.074066,85.855019 287.585541,87.967888 287.864105,90.081726 
z"/>
<path fill="#7ECDEF" opacity="1.000000" stroke="none" 
	d="
M130.176987,111.195641 
	C143.761108,112.786507 143.853806,112.785713 143.738541,99.306969 
	C143.582489,81.056404 143.266815,62.807205 143.011810,44.100212 
	C143.670090,46.286514 144.889465,48.925041 144.913330,51.574329 
	C145.081039,70.199997 144.904938,88.828789 145.078278,107.454353 
	C145.116684,111.581528 143.582382,113.354073 139.630676,112.968910 
	C136.469269,112.660774 133.334396,112.080376 130.176987,111.195641 
z"/>
<path fill="#7ECDEF" opacity="1.000000" stroke="none" 
	d="
M94.698013,47.337746 
	C95.069130,65.830818 95.142166,84.617577 95.200363,103.404381 
	C95.224792,111.292160 95.210632,111.307961 102.996643,111.238297 
	C104.652084,111.223495 106.306084,111.047844 108.397385,110.795410 
	C106.731499,112.657410 97.136475,114.093674 95.235252,112.515015 
	C94.573036,111.965126 94.064339,110.815025 94.066902,109.940735 
	C94.127823,89.170830 94.268127,68.401161 94.698013,47.337746 
z"/>
<path fill="#B4E3F6" opacity="1.000000" stroke="none" 
	d="
M161.163788,27.094599 
	C161.139084,55.059677 161.114380,83.024757 161.155182,111.449913 
	C160.814148,110.492233 160.056366,109.075287 160.053131,107.656609 
	C159.992615,81.101929 160.021652,54.547028 160.351822,27.534773 
	C160.671707,27.077368 161.163788,27.094599 161.163788,27.094599 
z"/>
<path fill="#53BFEC" opacity="1.000000" stroke="none" 
	d="
M29.704163,26.768337 
	C30.102602,54.488911 30.148487,82.511551 30.125546,111.033958 
	C29.705324,110.326256 29.049843,109.119423 29.047266,107.911209 
	C28.991207,81.614235 29.005377,55.317101 29.024723,29.020012 
	C29.025202,28.370062 29.237892,27.720270 29.704163,26.768337 
z"/>
<path fill="#B3E2F6" opacity="1.000000" stroke="none" 
	d="
M287.966553,89.615105 
	C287.585541,87.967888 287.074066,85.855019 287.065338,83.740074 
	C286.998108,67.459038 287.031097,51.177608 287.027222,34.896297 
	C287.025299,26.980309 287.019714,26.977234 279.192322,27.011299 
	C277.863678,27.017082 276.535187,27.062084 274.719849,26.871521 
	C274.233093,26.654076 274.211853,26.163513 274.211853,26.163513 
	C278.647339,26.163513 283.082794,26.163513 288.069000,26.163513 
	C288.069000,47.365295 288.069000,68.256889 287.966553,89.615105 
z"/>
<path fill="#55BEEB" opacity="1.000000" stroke="none" 
	d="
M273.776276,26.260927 
	C274.211853,26.163513 274.233093,26.654076 274.276337,26.895794 
	C274.245392,47.617256 274.171234,68.097000 274.034058,89.082993 
	C273.665466,88.848900 273.091644,88.107941 273.093353,87.368309 
	C273.139954,67.031570 273.245209,46.694965 273.776276,26.260927 
z"/>
<path fill="#81D0F1" opacity="1.000000" stroke="none" 
	d="
M174.268753,111.717270 
	C173.853333,101.788765 173.832230,91.746857 173.902756,81.705605 
	C173.913818,80.132294 174.341095,78.561905 174.896713,76.975418 
	C175.042740,88.508469 174.867981,100.056274 174.268753,111.717270 
z"/>
<path fill="#659AC9" opacity="1.000000" stroke="none" 
	d="
M44.903030,61.442471 
	C44.606140,60.384087 43.999046,58.867413 43.982872,57.344456 
	C43.878769,47.543415 43.903984,37.741001 43.807850,27.476051 
	C44.151871,28.109194 44.935951,29.203514 44.941448,30.301729 
	C44.992615,40.527863 44.909954,50.754665 44.903030,61.442471 
z"/>
<path fill="#649BCA" opacity="1.000000" stroke="none" 
	d="
M44.155674,110.834518 
	C43.892288,99.845703 44.050903,88.708061 44.560066,77.339523 
	C44.799633,88.300980 44.688656,99.493332 44.155674,110.834518 
z"/>
<path fill="#A8DEF4" opacity="1.000000" stroke="none" 
	d="
M161.618561,27.058811 
	C161.163788,27.094599 160.671707,27.077368 160.425507,27.075981 
	C160.032318,26.801279 160.039627,26.532179 160.863831,26.117720 
	C170.067200,25.946409 178.607941,25.924679 187.148682,25.902948 
	C188.028183,26.061684 188.907684,26.220419 189.956665,26.673485 
	C180.775208,26.986217 171.424271,27.004622 161.618561,27.058811 
z"/>
<path fill="#8BB8DB" opacity="1.000000" stroke="none" 
	d="
M257.860016,26.549896 
	C252.595566,26.999052 247.312744,27.045858 241.574814,27.038601 
	C246.693680,26.705540 252.267670,26.426544 257.860016,26.549896 
z"/>
<path fill="#A8DEF5" opacity="1.000000" stroke="none" 
	d="
M209.454163,110.853493 
	C209.178879,101.578018 209.244553,92.033142 209.570343,82.139786 
	C209.818665,91.388901 209.806870,100.986496 209.454163,110.853493 
z"/>
<path fill="#8BB8DB" opacity="1.000000" stroke="none" 
	d="
M241.397522,111.283066 
	C246.401382,111.064224 251.683044,111.112968 257.421570,111.104782 
	C256.806335,111.657494 255.707153,112.829041 254.666946,112.778854 
	C250.326767,112.569427 246.004303,111.992706 241.397522,111.283066 
z"/>
<path fill="#9DDAF3" opacity="1.000000" stroke="none" 
	d="
M64.866226,84.414856 
	C65.178589,86.482819 65.869148,89.010796 65.935570,91.555084 
	C66.103966,98.005112 65.992409,104.462456 65.992172,111.374817 
	C65.661415,109.679504 65.089111,107.531044 65.046349,105.372101 
	C64.911102,98.544281 64.973984,91.712532 64.866226,84.414856 
z"/>
<path fill="#82D0F1" opacity="1.000000" stroke="none" 
	d="
M79.332268,111.692093 
	C79.033348,102.697723 79.145233,93.564880 79.544373,84.100922 
	C79.802109,93.031075 79.772591,102.292343 79.332268,111.692093 
z"/>
<path fill="#53BFEC" opacity="1.000000" stroke="none" 
	d="
M194.879700,84.430870 
	C195.222107,85.637650 196.001343,87.302650 196.033340,88.981888 
	C196.172638,96.290680 196.094452,103.603622 196.096863,111.372879 
	C195.732834,110.402756 195.072662,108.979279 195.050873,107.546104 
	C194.936005,99.997307 194.982300,92.446045 194.879700,84.430870 
z"/>
<path fill="#82D0F1" opacity="1.000000" stroke="none" 
	d="
M79.900414,53.748455 
	C79.533348,48.897549 79.157700,43.567329 78.964531,38.230507 
	C78.839989,34.789631 78.983177,31.339071 79.057495,27.424751 
	C79.405556,31.279783 79.825317,35.598942 79.965332,39.927151 
	C80.109032,44.368942 79.979271,48.819576 79.900414,53.748455 
z"/>
<path fill="#9DDAF3" opacity="1.000000" stroke="none" 
	d="
M65.498711,27.254375 
	C65.680573,35.809387 65.524261,44.621780 65.067993,53.744621 
	C64.898880,45.207302 65.029709,36.359528 65.498711,27.254375 
z"/>
<path fill="#7189B9" opacity="1.000000" stroke="none" 
	d="
M186.789276,25.671585 
	C178.607941,25.924679 170.067200,25.946409 161.012146,25.969933 
	C169.141846,25.794559 177.785873,25.617392 186.789276,25.671585 
z"/>
<path fill="#D22352" opacity="1.000000" stroke="none" 
	d="
M129.754242,48.899216 
	C130.074890,63.329166 132.168564,61.968689 117.572365,62.029942 
	C114.934044,62.041012 112.295639,62.031517 109.148315,62.031517 
	C109.148315,57.390633 108.349487,52.782452 109.422523,48.661697 
	C110.167183,45.802002 113.041084,42.497654 115.770073,41.403793 
	C119.270813,40.000591 123.676544,40.347584 126.556221,44.030861 
	C127.665230,45.449348 128.595520,47.007568 129.754242,48.899216 
z"/>
<path fill="#D32251" opacity="1.000000" stroke="none" 
	d="
M175.502380,61.759483 
	C174.555328,54.904812 174.026108,48.248474 173.450943,41.014385 
	C178.619156,41.014385 183.073959,40.285694 187.112259,41.268501 
	C189.841110,41.932629 192.766144,44.568180 194.194260,47.112801 
	C196.077545,50.468414 195.725296,54.484486 192.837097,57.693745 
	C189.779160,61.091595 186.041275,62.654102 181.410431,62.066254 
	C179.604874,61.837044 177.751709,61.982834 175.502380,61.759483 
z"/>
</svg>